<?xml version="1.0" standalone="no"?><svg xmlns:xlink="http://www.w3.org/1999/xlink" xmlns="http://www.w3.org/2000/svg" viewBox="0 0 900 476.4715803676843" preserveAspectRatio="xMaxYMax slice"><g transform="scale(0.8433125316242199)"><rect x="0" y="0" width="1067.2222222222222" height="565" fill="#ffffff"/><circle cx="596.39" cy="31.39" r="6.28" fill="#f8e33e"/><circle cx="659.17" cy="31.39" r="6.28" fill="#616161"/><circle cx="31.385" cy="94.165" r="9.625" fill="#bababa"/><circle cx="219.725" cy="94.165" r="9.625" fill="#858585"/><circle cx="721.945" cy="94.165" r="9.625" fill="#757575"/><circle cx="156.945" cy="156.945" r="12.975" fill="#0a0a0a"/><g transform="translate(646.19,143.97) scale(1.2974999999999999) rotate(0)"><path d="M10 5L5 0L0 5L5 10L0 15L5 20L10 15L15 20L20 15L15 10L20 5L15 0L10 5Z" fill="#f8e442"/></g><g transform="translate(74.5,262.83) scale(1.967) rotate(0)"><path d="M10 5L5 0L0 5L5 10L0 15L5 20L10 15L15 20L20 15L15 10L20 5L15 0L10 5Z" fill="#f9e54a"/></g><circle cx="282.5" cy="282.5" r="19.67" fill="#3e3e3e"/><circle cx="156.95000000000002" cy="345.28" r="23.02" fill="#fffffd"/><circle cx="408.06" cy="345.28" r="23.02" fill="#e8e8e8"/><g transform="translate(698.93,322.26) scale(2.302) rotate(0)"><path d="M10 5L5 0L0 5L5 10L0 15L5 20L10 15L15 20L20 15L15 10L20 5L15 0L10 5Z" fill="#fefbe5"/></g><circle cx="973.06" cy="345.28" r="23.02" fill="#2c2c2c"/><circle cx="345.27500000000003" cy="408.055" r="26.365" fill="#bcbcbc"/><g transform="translate(570.02,381.69) scale(2.6365) rotate(0)"><path d="M10 5L5 0L0 5L5 10L0 15L5 20L10 15L15 20L20 15L15 10L20 5L15 0L10 5Z" fill="#494949"/></g><circle cx="94.165" cy="470.835" r="29.715" fill="#2b2b2b"/><g transform="translate(1004.44,502.22) scale(3.1390000000000002) rotate(0)"><path d="M10 5L5 0L0 5L5 10L0 15L5 20L10 15L15 20L20 15L15 10L20 5L15 0L10 5Z" fill="#faec76"/></g></g></svg>